# xmcd CD database file
#
# Track frame offsets:
#	150
#	15313
#	39305
#	57485
#	78183
#	100996
#	122734
#	146483
#	169832
#	191256
#	212039
#
# Disc length: 3054 seconds
#
# Revision: 2
# Processed by: cddbd v1.5.1PL2 Copyright (c) Steve Scherf et al.
# Submitted via: CDex 1.51
#
DISCID=8a0bec0b
DTITLE=田村　直美 - CRISIS
DYEAR=2005
DGENRE=Rock
TTITLE0=Twister
TTITLE1=Feel so down
TTITLE2=The piece of peace
TTITLE3=Remember who you are
TTITLE4=Got my way
TTITLE5=We're going to move on
TTITLE6=Home
TTITLE7=Last love
TTITLE8=Everybody run on a bumpy road
TTITLE9=Can't live without this love
TTITLE10=All my relations
EXTD=YEAR: 2005
EXTT0=
EXTT1=
EXTT2=
EXTT3=
EXTT4=
EXTT5=
EXTT6=
EXTT7=
EXTT8=
EXTT9=
EXTT10=
PLAYORDER=
